/* XPM */
static char * netpanzer_xpm[] = {
"48 48 671 2",
"  	c None",
". 	c #3A4839",
"+ 	c #3D4D3D",
"@ 	c #384838",
"# 	c #394939",
"$ 	c #3C4D3C",
"% 	c #3C483B",
"& 	c #36423E",
"* 	c #3C4C3C",
"= 	c #364034",
"- 	c #3A443C",
"; 	c #3C4C3F",
"> 	c #3A493F",
", 	c #3E4F3E",
"' 	c #3C4B3C",
") 	c #3D463F",
"! 	c #3C4241",
"~ 	c #39413D",
"{ 	c #384638",
"] 	c #3D4C3D",
"^ 	c #39493F",
"/ 	c #3B493A",
"( 	c #3B4B3F",
"_ 	c #3C4840",
": 	c #353F35",
"< 	c #3D433F",
"[ 	c #3D463D",
"} 	c #415344",
"| 	c #405143",
"1 	c #2D392D",
"2 	c #39483A",
"3 	c #3D4C3F",
"4 	c #384234",
"5 	c #3B483B",
"6 	c #383F36",
"7 	c #3C4A3B",
"8 	c #394538",
"9 	c #3B473A",
"0 	c #39413A",
"a 	c #33343A",
"b 	c #374136",
"c 	c #445143",
"d 	c #465A4A",
"e 	c #43584A",
"f 	c #303D37",
"g 	c #353E35",
"h 	c #3E4E3E",
"i 	c #415040",
"j 	c #3E4D40",
"k 	c #3C403F",
"l 	c #373E39",
"m 	c #36443C",
"n 	c #374238",
"o 	c #3E4D3D",
"p 	c #374540",
"q 	c #363E37",
"r 	c #3A3D3A",
"s 	c #404D41",
"t 	c #495D4A",
"u 	c #475A4B",
"v 	c #435849",
"w 	c #313E30",
"x 	c #323831",
"y 	c #3A4436",
"z 	c #414C46",
"A 	c #394139",
"B 	c #3A3E3A",
"C 	c #3C423D",
"D 	c #3C423E",
"E 	c #3E4D3F",
"F 	c #3B483D",
"G 	c #333838",
"H 	c #303534",
"I 	c #373B3A",
"J 	c #39473E",
"K 	c #38443C",
"L 	c #393F3A",
"M 	c #3E493D",
"N 	c #465C4A",
"O 	c #3D4C40",
"P 	c #394739",
"Q 	c #333D31",
"R 	c #2E372D",
"S 	c #383D38",
"T 	c #3C403D",
"U 	c #3C4A3C",
"V 	c #3A4939",
"W 	c #3C4B3B",
"X 	c #363C37",
"Y 	c #353F36",
"Z 	c #3F4E3E",
"` 	c #3A473B",
" .	c #334032",
"..	c #394436",
"+.	c #353B36",
"@.	c #3C4441",
"#.	c #3D4A3C",
"$.	c #404E40",
"%.	c #3B403C",
"&.	c #3D4340",
"*.	c #374836",
"=.	c #2C362A",
"-.	c #2D3B2C",
";.	c #313D31",
">.	c #344034",
",.	c #3A4438",
"'.	c #3B3F3C",
").	c #3A4538",
"!.	c #3F4B3B",
"~.	c #445348",
"{.	c #425343",
"].	c #404C3C",
"^.	c #435245",
"/.	c #46554C",
"(.	c #3D4B3B",
"_.	c #384438",
":.	c #393E3B",
"<.	c #3D4D3F",
"[.	c #425048",
"}.	c #3B4A3B",
"|.	c #313F35",
"1.	c #2B342B",
"2.	c #334132",
"3.	c #303B2E",
"4.	c #3C473B",
"5.	c #3C4D3E",
"6.	c #38473D",
"7.	c #344036",
"8.	c #353F3D",
"9.	c #3A413D",
"0.	c #3B4240",
"a.	c #3F483E",
"b.	c #495D4C",
"c.	c #495F4E",
"d.	c #3A3E3D",
"e.	c #38403B",
"f.	c #404B40",
"g.	c #3E4E3D",
"h.	c #3D4D3C",
"i.	c #404F42",
"j.	c #3D423F",
"k.	c #35393B",
"l.	c #3D4D41",
"m.	c #313D39",
"n.	c #25322C",
"o.	c #373C38",
"p.	c #374436",
"q.	c #344133",
"r.	c #3D4B3D",
"s.	c #3E4D3E",
"t.	c #404D43",
"u.	c #415142",
"v.	c #3D4B41",
"w.	c #363E3D",
"x.	c #3A4039",
"y.	c #3B443A",
"z.	c #3D4B3C",
"A.	c #394838",
"B.	c #384138",
"C.	c #39433B",
"D.	c #445648",
"E.	c #4C614C",
"F.	c #495C49",
"G.	c #343F32",
"H.	c #373E35",
"I.	c #323A33",
"J.	c #3B3E3D",
"K.	c #3B433A",
"L.	c #465747",
"M.	c #445447",
"N.	c #3D423E",
"O.	c #3C433D",
"P.	c #415044",
"Q.	c #425245",
"R.	c #293731",
"S.	c #2F3B30",
"T.	c #374637",
"U.	c #323F33",
"V.	c #323F3B",
"W.	c #334235",
"X.	c #3A413A",
"Y.	c #3E4B40",
"Z.	c #3F4D40",
"`.	c #363B36",
" +	c #363D3A",
".+	c #3D4E3D",
"++	c #374035",
"@+	c #3F4B40",
"#+	c #485B49",
"$+	c #465946",
"%+	c #383B3A",
"&+	c #353D36",
"*+	c #3A403C",
"=+	c #393F39",
"-+	c #363E35",
";+	c #404E41",
">+	c #425442",
",+	c #465545",
"'+	c #3E433F",
")+	c #3B4A3C",
"!+	c #2C3C34",
"~+	c #2F3A2E",
"{+	c #334133",
"]+	c #303F2E",
"^+	c #3B493C",
"/+	c #344033",
"(+	c #2F3E31",
"_+	c #253431",
":+	c #25322D",
"<+	c #364635",
"[+	c #3B473B",
"}+	c #3F4C3F",
"|+	c #393E39",
"1+	c #3D4E3E",
"2+	c #3B453A",
"3+	c #3B413C",
"4+	c #3D483A",
"5+	c #293229",
"6+	c #2B362E",
"7+	c #303C32",
"8+	c #3C483D",
"9+	c #405040",
"0+	c #425244",
"a+	c #435544",
"b+	c #485D4C",
"c+	c #465849",
"d+	c #3E4744",
"e+	c #38413C",
"f+	c #2E3A35",
"g+	c #303A33",
"h+	c #3F4E3F",
"i+	c #3D4A40",
"j+	c #3A493B",
"k+	c #354439",
"l+	c #2F3B2E",
"m+	c #273530",
"n+	c #262324",
"o+	c #2A342F",
"p+	c #394136",
"q+	c #3F4C42",
"r+	c #394239",
"s+	c #363D35",
"t+	c #3E4E3F",
"u+	c #3D4640",
"v+	c #354234",
"w+	c #293023",
"x+	c #2E3028",
"y+	c #324234",
"z+	c #364434",
"A+	c #445343",
"B+	c #485D4D",
"C+	c #485E4E",
"D+	c #455746",
"E+	c #3D4743",
"F+	c #293732",
"G+	c #29342A",
"H+	c #324233",
"I+	c #374736",
"J+	c #455646",
"K+	c #405140",
"L+	c #3C473A",
"M+	c #303832",
"N+	c #24322D",
"O+	c #2D332A",
"P+	c #374139",
"Q+	c #3B3E3B",
"R+	c #3E4342",
"S+	c #3D4740",
"T+	c #3B4B3B",
"U+	c #394439",
"V+	c #3C453F",
"W+	c #374240",
"X+	c #404F40",
"Y+	c #394238",
"Z+	c #3A3F3A",
"`+	c #3D483C",
" @	c #2D3A2D",
".@	c #2B322D",
"+@	c #323C35",
"@@	c #38433C",
"#@	c #313F2F",
"$@	c #364435",
"%@	c #415644",
"&@	c #4A5D4B",
"*@	c #424D44",
"=@	c #344135",
"-@	c #2C352D",
";@	c #303728",
">@	c #37413B",
",@	c #304030",
"'@	c #445449",
")@	c #333D34",
"!@	c #283430",
"~@	c #314033",
"{@	c #3C463E",
"]@	c #3C443E",
"^@	c #394B39",
"/@	c #3C4440",
"(@	c #393E3A",
"_@	c #3B493F",
":@	c #38473E",
"<@	c #415242",
"[@	c #3F4D3F",
"}@	c #3A4539",
"|@	c #36453E",
"1@	c #3A4B3A",
"2@	c #2F3437",
"3@	c #343739",
"4@	c #353E39",
"5@	c #324434",
"6@	c #37433A",
"7@	c #354434",
"8@	c #3D4440",
"9@	c #384239",
"0@	c #283229",
"a@	c #364036",
"b@	c #36463C",
"c@	c #36433A",
"d@	c #3B4C3C",
"e@	c #2D3830",
"f@	c #2A362E",
"g@	c #394438",
"h@	c #383F37",
"i@	c #3D4C3B",
"j@	c #384238",
"k@	c #3B3F3E",
"l@	c #3B423B",
"m@	c #34443C",
"n@	c #3B493B",
"o@	c #39483B",
"p@	c #384B3B",
"q@	c #38443D",
"r@	c #3C483C",
"s@	c #22261E",
"t@	c #2C3027",
"u@	c #2C3430",
"v@	c #313E37",
"w@	c #364439",
"x@	c #314634",
"y@	c #373E38",
"z@	c #313D33",
"A@	c #334536",
"B@	c #374537",
"C@	c #314434",
"D@	c #324132",
"E@	c #364239",
"F@	c #354839",
"G@	c #31382C",
"H@	c #39453D",
"I@	c #384337",
"J@	c #333835",
"K@	c #373D37",
"L@	c #445645",
"M@	c #435246",
"N@	c #3F4C40",
"O@	c #3F4A3F",
"P@	c #343A32",
"Q@	c #313F31",
"R@	c #3E493A",
"S@	c #405041",
"T@	c #405141",
"U@	c #3E5140",
"V@	c #334337",
"W@	c #394C3B",
"X@	c #46574B",
"Y@	c #455548",
"Z@	c #1D2422",
"`@	c #2D2822",
" #	c #2B3835",
".#	c #3A3E3C",
"+#	c #3A433F",
"@#	c #333D2F",
"##	c #2E342A",
"$#	c #363C38",
"%#	c #364335",
"&#	c #364534",
"*#	c #373F36",
"=#	c #324032",
"-#	c #314131",
";#	c #3B463F",
">#	c #384537",
",#	c #404E45",
"'#	c #3E503F",
")#	c #3B4A3E",
"!#	c #333C35",
"~#	c #404F3F",
"{#	c #415240",
"]#	c #455845",
"^#	c #334033",
"/#	c #3D4B3F",
"(#	c #3F4B41",
"_#	c #3F5040",
":#	c #364437",
"<#	c #3C4C3D",
"[#	c #455644",
"}#	c #46564B",
"|#	c #222826",
"1#	c #2B3734",
"2#	c #2F3833",
"3#	c #2E3C32",
"4#	c #2E3835",
"5#	c #2C3835",
"6#	c #2F3E32",
"7#	c #334035",
"8#	c #314031",
"9#	c #2F3832",
"0#	c #35453A",
"a#	c #354336",
"b#	c #3F4E40",
"c#	c #383F38",
"d#	c #3E4A3E",
"e#	c #435247",
"f#	c #3F4F3F",
"g#	c #4C624D",
"h#	c #4C604C",
"i#	c #4A5D4A",
"j#	c #39453A",
"k#	c #3C463F",
"l#	c #404F43",
"m#	c #3C4B3D",
"n#	c #3B4939",
"o#	c #46554A",
"p#	c #38443A",
"q#	c #131716",
"r#	c #221E18",
"s#	c #262F29",
"t#	c #263130",
"u#	c #2D2F36",
"v#	c #363938",
"w#	c #333F33",
"x#	c #2E3B2D",
"y#	c #2A352D",
"z#	c #304130",
"A#	c #364436",
"B#	c #354335",
"C#	c #415143",
"D#	c #3D4A3D",
"E#	c #475B47",
"F#	c #4B5E4B",
"G#	c #4E6650",
"H#	c #4C634E",
"I#	c #485848",
"J#	c #425044",
"K#	c #374037",
"L#	c #3C453D",
"M#	c #3E4743",
"N#	c #3F4D41",
"O#	c #384236",
"P#	c #353D39",
"Q#	c #090A09",
"R#	c #1C231B",
"S#	c #1F2C29",
"T#	c #272F31",
"U#	c #2B2D34",
"V#	c #2C3833",
"W#	c #2E3533",
"X#	c #2C342A",
"Y#	c #364636",
"Z#	c #404941",
"`#	c #4A5949",
" $	c #506452",
".$	c #4E604F",
"+$	c #4C5E4C",
"@$	c #4A604C",
"#$	c #425046",
"$$	c #394039",
"%$	c #3C403C",
"&$	c #3F4743",
"*$	c #3F4642",
"=$	c #3F4945",
"-$	c #3F4E41",
";$	c #37383B",
">$	c #1C1B22",
",$	c #090B0A",
"'$	c #18201D",
")$	c #202E2B",
"!$	c #25312F",
"~$	c #303734",
"{$	c #30302A",
"]$	c #36443A",
"^$	c #364338",
"/$	c #3C493B",
"($	c #3C413D",
"_$	c #38463A",
":$	c #3B453B",
"<$	c #3A423B",
"[$	c #3C3D35",
"}$	c #455248",
"|$	c #4E6550",
"1$	c #4C624E",
"2$	c #4F6350",
"3$	c #4C604D",
"4$	c #4A5D4C",
"5$	c #424E44",
"6$	c #3B413B",
"7$	c #3E4B3D",
"8$	c #495D4D",
"9$	c #4A5C4E",
"0$	c #415043",
"a$	c #3C4140",
"b$	c #3B4737",
"c$	c #364237",
"d$	c #292E2E",
"e$	c #232727",
"f$	c #000000",
"g$	c #0A0F0D",
"h$	c #2C322E",
"i$	c #2D2D26",
"j$	c #2A3433",
"k$	c #354539",
"l$	c #3A473D",
"m$	c #39443D",
"n$	c #314236",
"o$	c #333F35",
"p$	c #374036",
"q$	c #3D4238",
"r$	c #455547",
"s$	c #4A6053",
"t$	c #4D634E",
"u$	c #4B614D",
"v$	c #4A5E4B",
"w$	c #455849",
"x$	c #475C4B",
"y$	c #4A604E",
"z$	c #4B604D",
"A$	c #404C44",
"B$	c #3C4242",
"C$	c #353B38",
"D$	c #0C0F0A",
"E$	c #0D0E0C",
"F$	c #040404",
"G$	c #1A221C",
"H$	c #3D453D",
"I$	c #313F33",
"J$	c #323F37",
"K$	c #2E3A31",
"L$	c #374039",
"M$	c #3B4B3E",
"N$	c #3A4739",
"O$	c #3E4C3F",
"P$	c #3C433B",
"Q$	c #3E4442",
"R$	c #425544",
"S$	c #49604E",
"T$	c #4A604D",
"U$	c #455749",
"V$	c #353A3A",
"W$	c #0A0B0A",
"X$	c #222B21",
"Y$	c #3F4E3D",
"Z$	c #354437",
"`$	c #2E3734",
" %	c #2D3B32",
".%	c #2E3634",
"+%	c #334136",
"@%	c #304131",
"#%	c #324038",
"$%	c #38423B",
"%%	c #3B423E",
"&%	c #3A413E",
"*%	c #434F4A",
"=%	c #455847",
"-%	c #4A5F4A",
";%	c #333A36",
">%	c #0C0D0D",
",%	c #121712",
"'%	c #324232",
")%	c #3C4839",
"!%	c #101612",
"~%	c #1F2C28",
"{%	c #2D211A",
"]%	c #303935",
"^%	c #393F3B",
"/%	c #303934",
"(%	c #303E32",
"_%	c #333C37",
":%	c #3E463B",
"<%	c #3B403F",
"[%	c #3D4544",
"}%	c #3C433C",
"|%	c #424F44",
"1%	c #495C4B",
"2%	c #40503F",
"3%	c #0D0F0C",
"4%	c #3D493F",
"5%	c #0D0D0D",
"6%	c #202821",
"7%	c #252722",
"8%	c #2C332E",
"9%	c #2E392F",
"0%	c #344234",
"a%	c #2F372D",
"b%	c #343A2F",
"c%	c #314335",
"d%	c #303337",
"e%	c #404846",
"f%	c #46544C",
"g%	c #475B49",
"h%	c #3F5141",
"i%	c #314231",
"j%	c #3E4B3C",
"k%	c #191E18",
"l%	c #0C0C0B",
"m%	c #060605",
"n%	c #0E1413",
"o%	c #17201E",
"p%	c #24322F",
"q%	c #2D3835",
"r%	c #373F38",
"s%	c #2D3336",
"t%	c #303F38",
"u%	c #2E3B2F",
"v%	c #2F3729",
"w%	c #344534",
"x%	c #414E42",
"y%	c #485A4C",
"z%	c #3F4742",
"A%	c #383D3A",
"B%	c #272F25",
"C%	c #0C0F0C",
"D%	c #253025",
"E%	c #405241",
"F%	c #2F3E2F",
"G%	c #0D0D0C",
"H%	c #050505",
"I%	c #171F1C",
"J%	c #2D2E29",
"K%	c #2A312D",
"L%	c #263431",
"M%	c #2D3B33",
"N%	c #2F3434",
"O%	c #2B362D",
"P%	c #3A4C3B",
"Q%	c #475848",
"R%	c #435447",
"S%	c #111111",
"T%	c #2A3A2B",
"U%	c #394A39",
"V%	c #2C332A",
"W%	c #1D1E1B",
"X%	c #1C241F",
"Y%	c #282B29",
"Z%	c #332823",
"`%	c #383B39",
" &	c #2B3534",
".&	c #2D3632",
"+&	c #314234",
"@&	c #374837",
"#&	c #141613",
"$&	c #37473B",
"%&	c #3A4A39",
"&&	c #313A2F",
"*&	c #1C1D22",
"=&	c #242722",
"-&	c #2A332F",
";&	c #231D1B",
">&	c #262B25",
",&	c #313537",
"'&	c #2E3832",
")&	c #282B2B",
"!&	c #334332",
"~&	c #0A0C0C",
"{&	c #0F1413",
"]&	c #160F0E",
"^&	c #251D1B",
"/&	c #252928",
"(&	c #282A2F",
"_&	c #090A08",
":&	c #303F30",
"<&	c #384635",
"[&	c #394639",
"                                                                                                ",
"                                                                                                ",
"                                                                                                ",
"                                                                                                ",
"                                                                                                ",
"                                                                                                ",
"                                                                                                ",
"                                . + @                                                           ",
"                            # $ % & * =                                                         ",
"                          # - ; > , ' ) ! ~                                                     ",
"                        { ] ^ / ( _ : < [ } | 1 2 3 4 5                                         ",
"                    6 7 8 9 * / 0 a b c d e f g h h i j k                                       ",
"                  l m n h o p q r s t u v w x y z A B C D E F G                                 ",
"                  H I ] J ] , K L M N O P Q R S T U V + W / X Y Z `                             ",
"               .+ ..+.@.; #.+ $.%.&.*.$ 8 =.-.;.>.,.+ ; > * '.).!.~.{.                          ",
"            ].^./.(._.:.q <.[.}.|.1.8 W 2.3.o 4.5.6.7.* 9 ' 8.9.0.a.b.c.                        ",
"          d.e.f.g.h.i.j.k.l.{.m.n.o.9 p.q.r.s.t.u.v.w.x.y.z.9 A.B.C.D.E.F.                      ",
"        G.H.I.J.K.L.M.N.O.P.Q.R.S.T.U.V.W.X.g Y.~.s.Z.`. +.+4.o * ++@+#+$+                      ",
"      %+&+*+=+-+;+>+,+'+C )+!+~+{+]+^+/+(+_+:+<+[+;+}+|+` 1+p > ; 2+3+3+4+5+                    ",
"      6+7+8+9+0+a+b+c+d+e+f+g+h+i+j+k+l+m+n+o+p+q+r+s+/ ( 5., , #.t+u+9.z.] v+                  ",
"      w+x+y+z+A+B+C+D+E+F+G+H+I+J+K+L+M+N+O+P+Q+R+S+T+U+V+W++ #.X+h+Y+Z+7 `+h #  @              ",
"      .@+@@@#@$@%@&@*@=@-@;@>@,@{ '@)@!@~@7 {@]@^@+ /@%.D (@_@:@; <@[@}@|@1@4.+ o h             ",
"      2@3@4@5@6@7@Y.8@9@0@f a@b@c@d@e@f@g@/ , / 9 g@h@i@}+j@k@l@m@n@P.Z 9+o@p@q@] r@h           ",
"      s@t@u@v@w@x@y@z@A@B@C@D@A@E@F@G@H@I@; q@7 ' J@K@L@M@N@O@P@Q@R@S@T@{.<@U@V@W@z.X@Y@        ",
"        Z@`@ #.#+#@###$#%#&#*#=#-#;#r >#,#+ '#% )#!#~#{#]#D+$ ^#/#E (#<@{.{.{._#:#<#[#L@}#      ",
"          |#1#2#3#4#5#6#7#8#9#0#a#b#c#g@h.d#e#f#7 A Y@g#h#i#, j#k#S@P.{.{.{.{.{.l#m#n#o#p#      ",
"            q#r#s#t#u#v#w#x#y#z# .A#B#X+`+_#C#~.D#0 E#F#G#H#I#J#K#L#d+M#L+N#Q.{.{.{.O#P#        ",
"              Q#R#S#T#U#V#W#X#0 B@Y#<@m## [+T@X+X.Z#`# $.$+$@$#$$$%$&$*$'.S =$K+0+-$;$>$        ",
"                  ,$'$)$!$~${$]$^$+ /$^+($_$:$<$[$}$|$1$2$3$4$5$6$7$8$9$0$) a$b$c$d$e$          ",
"                    f$g$h$i$j$k$l$).m$n$o$p$*#K#q$r$s$h#t$u$v$L.w$x$y$z$#+A$B$C$D$f$            ",
"                    E$f$F$G$Q@H$+ D#I$J$K$L$T.M$4.N$O$P$S+Q$R$S$T$z$y$S$U$($V$f$f$              ",
"                        W$X$ .Y$Z$`$R. %.%+%@%#%B@$%%%]@&%*%=%-%T$T$y$y$L.;%>%f$                ",
"                        ,%'%)%-.!%~%{%]%^%w#/%7+(%_%:%Y+<%[%}%|%1%z$y$y$2%3%f$                  ",
"                        ^#4%Q f$f$5%6%7%8%N+9%0%a%b%c%d%r+z.u.l@e%f%g%h%f$f$                    ",
"                      i%* j%k%l%m%f$f$n%o%p%q%r%s%t%u%v%w%x%y%J#z%A%B%C%f$                      ",
"                    D%b E%F%    G%H%f$f$f$I%J%K%L%M%N%O%8#P%Q%R%P.S%f$f$                        ",
"                  T%U%W V%      W%        f$f$X%Y%Z%`% &.&+&@&B.#&f$f$                          ",
"                  $&%&&&                      f$*&=&-&;&>&,&'&)&>%                              ",
"                !&i.+                             ~&{&]&^&/&(&_&                                ",
"              :&<&)%                                                                            ",
"                [&                                                                              ",
"                                                                                                ",
"                                                                                                ",
"                                                                                                ",
"                                                                                                ",
"                                                                                                ",
"                                                                                                ",
"                                                                                                "};
